<svg fill-rule="evenodd" viewBox="0 0 52 57" xmlns="http://www.w3.org/2000/svg">
  <path d="m42.75 0h-18.75v52.5l3.733 3.75v-52.5h18.767z"/>
  <path d="m27.733 22.517h18.767l-3.75-3.75h-15.017v-15.017l-3.733-3.75v52.5l3.733 3.75z"/>
  <path d="m24 0v52.5l3.733 3.75v-47.214l15.359 15.359v-5.303l-19.092-19.092z"/>
  <path d="m27.733 18.768v-15.018l-3.733-3.75v52.5l3.733 3.75v-32.178l18.768-18.769v-5.303z"/>
  <path d="m44.25 0h-20.25v52.5l3.733 3.75v-32.233l20.267-20.267-3.75-3.75zm-16.517 3.733v14.98l14.963-14.963z"/>
  <path d="m27.733 3.75-3.733-3.75v52.5l3.733 3.75zm15.017-3.75v18.75l3.75 3.75v-18.75z"/>
  <path d="m24 0v52.5l3.733 3.75v-52.5h15.017v15.017l3.75 3.75v-18.767l-3.75-3.75z"/>
  <path d="m46.5 22.5v-18.75l-3.75-3.75v18.75h-15.017v-15l-3.733-3.75v52.5l3.733 3.75v-33.75z"/>
  <path d="m24 0v52.5l3.733 3.75.009-33.733h18.758v-18.767l-3.75-3.75h-18.75zm3.733 3.75v15.017h15.009l.008-15.017z"/>
</svg>
